<svg xmlns="http://www.w3.org/2000/svg" viewBox="0 0 163.74 44.64">
  <defs/>
  <g fill="#0a0b0e">
    <path d="M90.2 43.37c-.7-.7-11.57-1.68-24.14-2.17-18.4-.72-25.67-1.7-28.3-4.08 0 0-4.1-.58-12.35-.58-9.92 0-11.34-1.75-12.16 1.38-.75 2.85-5.4 6.42-11.84 2.7L0 36.38l.43-12.7C.03 9.13.4 5 2.58 4.16 6.59 2.62 14.2 3.23 14.2 7.84c0 0 16.75-.52 23.43-.52 2.49-1.88 10.5-2.1 25.95-2.14 0 0 18.88-.77 21.92-2.51 5.65-3.23 61.9-3.68 65.05-.52 1.35 1.36 2.06 8.6 2.06 21.24 0 15.92 1.27 19.37-.98 20.23-3.92 1.5-59.92 1.28-61.44-.25zm59.9-20.35c-1.96-17.59-.1-18.08-4.52-19.56-2.15-.03-13.73.23-28.35.22-32.17-.02-31.88-.09-31.88 18.96 0 7.34.76 11.13 3.82 15.06 5.13 2.96 3.53 4.24 32.13 3.77l28.96-.03c.1-6.89.3-14.3-.16-18.42zm-138.9-.64c0-16.23-.01-16.29-4.28-16.29-4.2 0-4.3.32-4.79 14.43-.6 17.05.07 19.42 5.21 18.69 3.7-.53 3.86-1.24 3.86-16.83zm71.99.92V6.95l-19.8.87c-13.1.57-18.2.8-21.85 4.44 0 0-2.2 2.38-2.2 8.89 0 6.51.61 11.22 4.59 13.51 5.12 2.96 15.56 3.72 28.67 3.9h11.37zM37.77 11.94l-11.57.5c-1.16.17-7.71.34-11.57.51l-.53 8.1c-.77 11.58-.17 11.61 12.48 11.61h11.2z"/>
    <path d="M162.1 38.75c-.74 2.84-5.4 6.41-11.84 2.69l-1.4-4.23.43-12.7c-.4-14.55-.04-18.69 2.14-19.52 18.48-8.35 10.67 33.76 10.67 33.76zm-2.04-15.55c0-16.23-.02-16.28-4.29-16.28-4.19 0-4.3.31-4.78 14.42-.6 17.06.06 19.42 5.2 18.7 3.7-.53 3.87-1.25 3.87-16.84z"/>
  </g>
</svg>
